<mxfile host="app.diagrams.net" modified="2023-09-11T22:41:12.917Z" agent="Mozilla/5.0 (Windows NT 10.0; Win64; x64) AppleWebKit/537.36 (KHTML, like Gecko) Chrome/115.0.0.0 Safari/537.36 OPR/101.0.0.0 (Edition std-1)" etag="wIm73HF9X-aBUlfNQK-Q" version="21.7.4" type="github">
  <diagram name="PÃ¡gina-1" id="tX32r8Nopxi4Lnu71gso">
    <mxGraphModel dx="536" dy="292" grid="1" gridSize="10" guides="1" tooltips="1" connect="1" arrows="1" fold="1" page="0" pageScale="1" pageWidth="827" pageHeight="1169" background="#0000FF" math="0" shadow="0">
      <root>
        <mxCell id="0" />
        <mxCell id="1" parent="0" />
        <mxCell id="xubouTnhZjZklaxZ2M0s-36" value="TelaLogin" style="swimlane;childLayout=stackLayout;horizontal=1;startSize=50;horizontalStack=0;rounded=1;fontSize=14;fontStyle=0;strokeWidth=2;resizeParent=0;resizeLast=1;shadow=0;dashed=0;align=center;arcSize=4;whiteSpace=wrap;html=1;labelBackgroundColor=none;fillColor=#F45B69;strokeColor=#028090;fontColor=#E4FDE1;sketch=1;curveFitting=1;jiggle=2;" vertex="1" parent="1">
          <mxGeometry x="90" y="40" width="160" height="120" as="geometry">
            <mxRectangle x="150" y="70" width="80" height="50" as="alternateBounds" />
          </mxGeometry>
        </mxCell>
        <mxCell id="xubouTnhZjZklaxZ2M0s-37" value="-txtLogin : TextBox&lt;br&gt;-txtSenha : TextBox&lt;br&gt;-btnLogin : Button" style="align=left;strokeColor=none;fillColor=none;spacingLeft=4;fontSize=12;verticalAlign=top;resizable=0;rotatable=0;part=1;html=1;labelBackgroundColor=none;fontColor=#E4FDE1;sketch=1;curveFitting=1;jiggle=2;rounded=1;" vertex="1" parent="xubouTnhZjZklaxZ2M0s-36">
          <mxGeometry y="50" width="160" height="70" as="geometry" />
        </mxCell>
        <mxCell id="xubouTnhZjZklaxZ2M0s-41" value="Usuari=" style="swimlane;childLayout=stackLayout;horizontal=1;startSize=50;horizontalStack=0;rounded=1;fontSize=14;fontStyle=0;strokeWidth=2;resizeParent=0;resizeLast=1;shadow=0;dashed=0;align=center;arcSize=4;whiteSpace=wrap;html=1;labelBackgroundColor=none;fillColor=#F45B69;strokeColor=#028090;fontColor=#E4FDE1;sketch=1;curveFitting=1;jiggle=2;" vertex="1" parent="1">
          <mxGeometry x="170" y="360" width="160" height="120" as="geometry" />
        </mxCell>
        <mxCell id="xubouTnhZjZklaxZ2M0s-42" value="+Attribute1&#xa;+Attribute2&#xa;+Attribute3" style="align=left;strokeColor=none;fillColor=none;spacingLeft=4;fontSize=12;verticalAlign=top;resizable=0;rotatable=0;part=1;html=1;labelBackgroundColor=none;fontColor=#E4FDE1;sketch=1;curveFitting=1;jiggle=2;rounded=1;" vertex="1" parent="xubouTnhZjZklaxZ2M0s-41">
          <mxGeometry y="50" width="160" height="70" as="geometry" />
        </mxCell>
        <mxCell id="xubouTnhZjZklaxZ2M0s-43" value="ControleUsuario" style="swimlane;childLayout=stackLayout;horizontal=1;startSize=50;horizontalStack=0;rounded=1;fontSize=14;fontStyle=0;strokeWidth=2;resizeParent=0;resizeLast=1;shadow=0;dashed=0;align=center;arcSize=4;whiteSpace=wrap;html=1;labelBackgroundColor=none;fillColor=#F45B69;strokeColor=#028090;fontColor=#E4FDE1;sketch=1;curveFitting=1;jiggle=2;" vertex="1" parent="1">
          <mxGeometry x="40" y="200" width="330" height="80" as="geometry" />
        </mxCell>
        <mxCell id="xubouTnhZjZklaxZ2M0s-44" value="+logar(usuario :String,senha : String ): void" style="align=left;strokeColor=none;fillColor=none;spacingLeft=4;fontSize=12;verticalAlign=top;resizable=0;rotatable=0;part=1;html=1;labelBackgroundColor=none;fontColor=#E4FDE1;sketch=1;curveFitting=1;jiggle=2;rounded=1;" vertex="1" parent="xubouTnhZjZklaxZ2M0s-43">
          <mxGeometry y="50" width="330" height="30" as="geometry" />
        </mxCell>
        <mxCell id="xubouTnhZjZklaxZ2M0s-48" value="" style="endArrow=classic;html=1;rounded=1;exitX=0.5;exitY=1;exitDx=0;exitDy=0;entryX=0.5;entryY=0;entryDx=0;entryDy=0;labelBackgroundColor=none;strokeColor=#028090;fontColor=default;sketch=1;curveFitting=1;jiggle=2;" edge="1" parent="1" source="xubouTnhZjZklaxZ2M0s-36" target="xubouTnhZjZklaxZ2M0s-43">
          <mxGeometry width="50" height="50" relative="1" as="geometry">
            <mxPoint x="250" y="210" as="sourcePoint" />
            <mxPoint x="300" y="160" as="targetPoint" />
          </mxGeometry>
        </mxCell>
        <mxCell id="xubouTnhZjZklaxZ2M0s-49" style="edgeStyle=orthogonalEdgeStyle;rounded=0;sketch=1;hachureGap=4;jiggle=2;curveFitting=1;orthogonalLoop=1;jettySize=auto;html=1;exitX=0.5;exitY=1;exitDx=0;exitDy=0;entryX=0.5;entryY=0;entryDx=0;entryDy=0;strokeColor=#028090;fontFamily=Architects Daughter;fontSource=https%3A%2F%2Ffonts.googleapis.com%2Fcss%3Ffamily%3DArchitects%2BDaughter;fontSize=16;fontColor=#E4FDE1;fillColor=#F45B69;" edge="1" parent="1" source="xubouTnhZjZklaxZ2M0s-44" target="xubouTnhZjZklaxZ2M0s-41">
          <mxGeometry relative="1" as="geometry" />
        </mxCell>
      </root>
    </mxGraphModel>
  </diagram>
</mxfile>
